<svg width="35" height="34" viewBox="0 0 35 34" fill="none" xmlns="http://www.w3.org/2000/svg">
<path d="M4.375 28.7158C4.375 29.2681 4.82272 29.7158 5.375 29.7158H29.625C30.1773 29.7158 30.625 29.2681 30.625 28.7158V5.24512C30.625 4.69283 30.1773 4.24512 29.625 4.24512H5.375C4.82272 4.24512 4.375 4.69283 4.375 5.24512V28.7158ZM21.875 12.7354C21.875 15.0843 19.9208 16.9805 17.5 16.9805C15.0792 16.9805 13.125 15.0843 13.125 12.7354C13.125 10.3864 15.0792 8.49023 17.5 8.49023C19.9208 8.49023 21.875 10.3864 21.875 12.7354ZM8.75 24.0557C8.75 21.2256 14.5833 19.669 17.5 19.669C20.4167 19.669 26.25 21.2256 26.25 24.0557V24.4707C26.25 25.023 25.8023 25.4707 25.25 25.4707H9.75C9.19771 25.4707 8.75 25.023 8.75 24.4707V24.0557Z" fill="#F4F4F4"/>
</svg>
