<svg width="200" height="200" viewBox="0 0 200 200" fill="none" xmlns="http://www.w3.org/2000/svg">
<path d="M175 116.667V158.333C175 162.754 173.244 166.993 170.118 170.118C166.993 173.244 162.754 175 158.333 175H41.6667C37.2464 175 33.0072 173.244 29.8816 170.118C26.7559 166.993 25 162.754 25 158.333V41.6667C25 37.2464 26.7559 33.0072 29.8816 29.8816C33.0072 26.7559 37.2464 25 41.6667 25H83.3333V41.6667H41.6667V158.333H158.333V116.667H175Z" fill="#7AA3EC"/>
<path d="M175 58.3333H141.667V25H125V58.3333H91.6667V75H125V108.333H141.667V75H175V58.3333Z" fill="#7AA3EC"/>
</svg>
