<svg width="200" height="200" viewBox="0 0 200 200" fill="none" xmlns="http://www.w3.org/2000/svg">
<path d="M158.708 61.675C161.858 58.525 163.592 54.3417 163.592 49.8917C163.592 45.4417 161.858 41.2584 158.708 38.1084L145.492 24.8917C142.342 21.7417 138.158 20.0084 133.708 20.0084C129.258 20.0084 125.075 21.7417 121.933 24.8834L33.3333 113.208V150H70.1083L158.708 61.675ZM133.708 36.675L146.933 49.8834L133.683 63.0834L120.467 49.875L133.708 36.675ZM49.9999 133.333V120.125L108.667 61.6417L121.883 74.8584L63.2249 133.333H49.9999ZM33.3333 166.667H166.667V183.333H33.3333V166.667Z" fill="#7AA3EC"/>
</svg>
