<svg width="40" height="35" viewBox="0 0 40 35" fill="none" xmlns="http://www.w3.org/2000/svg">
<path d="M26 6H9.33333C7.49238 6 6 7.27919 6 8.85714V28.8571C6 30.4351 7.49238 31.7143 9.33333 31.7143H26C27.841 31.7143 29.3333 30.4351 29.3333 28.8571V8.85714C29.3333 7.27919 27.841 6 26 6Z" stroke="#F4F4F4" stroke-width="2" stroke-linecap="round" stroke-linejoin="round"/>
<path d="M30.7143 28C32.5289 28 34 26.7066 34 25.1111V4.88889C34 3.2934 32.5289 2 30.7143 2H14.2857C12.4711 2 11 3.2934 11 4.88889" stroke="#F4F4F4" stroke-width="2" stroke-linecap="round" stroke-linejoin="round"/>
<path d="M13 13H23" stroke="#F4F4F4" stroke-width="2" stroke-linecap="round" stroke-linejoin="round"/>
<path d="M13 18.7143H23" stroke="#F4F4F4" stroke-width="2" stroke-linecap="round" stroke-linejoin="round"/>
<path d="M13 24.4286H19.6667" stroke="#F4F4F4" stroke-width="2" stroke-linecap="round" stroke-linejoin="round"/>
</svg>
