<svg width="200" height="200" viewBox="0 0 200 200" fill="none" xmlns="http://www.w3.org/2000/svg">
<path d="M184.754 47.7906L145.959 8.99568C145.091 8.12242 144.058 7.43009 142.92 6.95879C141.782 6.48748 140.562 6.24656 139.331 6.24997H21.875C19.3895 6.25287 17.0066 7.24152 15.2491 8.99905C13.4915 10.7566 12.5029 13.1395 12.5 15.625V184.375C12.5029 186.86 13.4915 189.243 15.2491 191.001C17.0066 192.758 19.3895 193.747 21.875 193.75H178.125C180.611 193.747 182.993 192.758 184.751 191.001C186.508 189.243 187.497 186.86 187.5 184.375V54.4191C187.503 53.1876 187.262 51.9676 186.791 50.8298C186.32 49.692 185.628 48.659 184.754 47.7906V47.7906ZM125 18.75V56.25H68.75V18.75H125ZM175 181.25H25V18.75H56.25V68.75H137.5V18.75H138.036L175 55.7136V181.25Z" fill="#7AA3EC"/>
<path d="M98.4375 87.5C91.3298 87.5 84.3816 89.6077 78.4717 93.5566C72.5618 97.5054 67.9556 103.118 65.2356 109.685C62.5156 116.252 61.8039 123.477 63.1905 130.449C64.5772 137.42 67.9999 143.823 73.0259 148.849C78.0518 153.875 84.4553 157.298 91.4265 158.684C98.3977 160.071 105.623 159.359 112.19 156.639C118.757 153.919 124.37 149.313 128.318 143.403C132.267 137.493 134.375 130.545 134.375 123.438C134.365 113.909 130.575 104.775 123.838 98.0373C117.1 91.2999 107.966 87.5103 98.4375 87.5V87.5ZM98.4375 146.875C93.802 146.875 89.2706 145.5 85.4163 142.925C81.5621 140.35 78.558 136.689 76.7841 132.407C75.0102 128.124 74.546 123.412 75.4504 118.865C76.3547 114.319 78.5869 110.142 81.8647 106.865C85.1425 103.587 89.3187 101.355 93.8651 100.45C98.4115 99.546 103.124 100.01 107.407 101.784C111.689 103.558 115.35 106.562 117.925 110.416C120.5 114.271 121.875 118.802 121.875 123.438C121.868 129.651 119.396 135.609 115.003 140.003C110.609 144.396 104.651 146.868 98.4375 146.875V146.875Z" fill="#7AA3EC"/>
</svg>
