<svg width="35" height="35" viewBox="0 0 35 35" fill="none" xmlns="http://www.w3.org/2000/svg">
<path d="M20.1543 32.0833H14.8459C14.5133 32.0833 14.1907 31.9697 13.9316 31.7612C13.6724 31.5527 13.4923 31.2619 13.4211 30.937L12.8276 28.1895C12.0358 27.8426 11.285 27.4088 10.5891 26.896L7.9101 27.7491C7.593 27.8502 7.25086 27.8399 6.94048 27.7197C6.6301 27.5995 6.37017 27.3768 6.20385 27.0885L3.54385 22.4933C3.37927 22.2047 3.31749 21.8689 3.36862 21.5406C3.41974 21.2124 3.58075 20.9112 3.8253 20.6864L5.90343 18.7906C5.80892 17.9318 5.80892 17.0652 5.90343 16.2064L3.8253 14.315C3.58041 14.09 3.41918 13.7886 3.36804 13.4601C3.3169 13.1315 3.37889 12.7953 3.54385 12.5066L6.19801 7.9085C6.36434 7.62021 6.62427 7.39749 6.93465 7.27732C7.24502 7.15715 7.58717 7.14676 7.90426 7.24788L10.5832 8.101C10.9391 7.8385 11.3095 7.5935 11.6916 7.37183C12.0605 7.16475 12.4397 6.97663 12.8276 6.80892L13.4226 4.06433C13.4934 3.73941 13.6732 3.44846 13.9321 3.23972C14.1909 3.03097 14.5134 2.91698 14.8459 2.91663H20.1543C20.4868 2.91698 20.8093 3.03097 21.0681 3.23972C21.327 3.44846 21.5068 3.73941 21.5776 4.06433L22.1784 6.81038C22.5868 6.99121 22.9863 7.19392 23.3728 7.41996C23.733 7.6285 24.0816 7.85746 24.417 8.10392L27.0974 7.25079C27.4143 7.15005 27.7561 7.16062 28.0662 7.28078C28.3762 7.40093 28.6359 7.62344 28.8022 7.91142L31.4563 12.5095C31.7947 13.1031 31.678 13.8541 31.1749 14.3164L29.0968 16.2123C29.1913 17.071 29.1913 17.9376 29.0968 18.7964L31.1749 20.6923C31.678 21.156 31.7947 21.9056 31.4563 22.4991L28.8022 27.0973C28.6359 27.3855 28.3759 27.6083 28.0655 27.7284C27.7552 27.8486 27.413 27.859 27.0959 27.7579L24.417 26.9048C23.7215 27.4171 22.9712 27.8505 22.1799 28.1968L21.5776 30.937C21.5065 31.2617 21.3266 31.5523 21.0677 31.7608C20.8089 31.9692 20.4866 32.083 20.1543 32.0833V32.0833ZM17.4943 11.6666C15.9472 11.6666 14.4634 12.2812 13.3695 13.3752C12.2755 14.4691 11.6609 15.9529 11.6609 17.5C11.6609 19.0471 12.2755 20.5308 13.3695 21.6247C14.4634 22.7187 15.9472 23.3333 17.4943 23.3333C19.0414 23.3333 20.5251 22.7187 21.6191 21.6247C22.713 20.5308 23.3276 19.0471 23.3276 17.5C23.3276 15.9529 22.713 14.4691 21.6191 13.3752C20.5251 12.2812 19.0414 11.6666 17.4943 11.6666V11.6666Z" fill="#F4F4F4"/>
</svg>
